<?xml version="1.0" standalone="no"?>
<!DOCTYPE svg PUBLIC "-//W3C//DTD SVG 20010904//EN"
 "http://www.w3.org/TR/2001/REC-SVG-20010904/DTD/svg10.dtd">
<svg version="1.0" xmlns="http://www.w3.org/2000/svg"
 width="878.000000pt" height="878.000000pt" viewBox="0 0 878.000000 878.000000"
 preserveAspectRatio="xMidYMid meet">
<metadata>
Created by potrace 1.14, written by Peter Selinger 2001-2017
</metadata>
<g transform="translate(0.000000,878.000000) scale(0.100000,-0.100000)"
fill="#000000" stroke="none">
<path d="M4378 8278 l-3 -493 -130 -7 c-694 -38 -1319 -272 -1855 -698 -135
-107 -393 -365 -500 -500 -275 -347 -481 -753 -590 -1165 -73 -275 -99 -463
-107 -772 l-6 -243 -594 0 c-471 0 -594 -3 -591 -12 4 -10 135 -14 601 -16
l597 -2 0 -43 c0 -66 28 -269 56 -402 99 -472 290 -890 584 -1279 571 -757
1442 -1217 2395 -1264 l140 -7 3 -687 c1 -444 6 -688 12 -688 6 0 11 244 12
688 l3 687 140 7 c504 25 974 159 1410 403 804 451 1392 1250 1570 2140 25
122 52 314 57 395 l3 45 598 3 c521 2 597 4 597 17 0 13 -74 15 -594 15 l-593
0 -6 248 c-6 261 -24 420 -73 636 -165 734 -591 1394 -1190 1846 -525 397
-1120 613 -1784 648 l-135 7 -3 493 c-1 313 -6 492 -12 492 -6 0 -11 -179 -12
-492z m2 -868 l0 -310 -215 0 c-184 0 -215 -2 -215 -15 0 -13 31 -15 215 -15
l215 0 0 -739 c0 -716 -1 -740 -19 -753 -10 -8 -29 -30 -41 -51 -33 -55 -25
-131 23 -226 l37 -73 -2 -266 c-1 -253 -14 -281 -17 -38 -1 89 -3 98 -18 91
-10 -4 -155 -54 -323 -112 -168 -58 -310 -108 -317 -112 -7 -4 115 -86 290
-196 l302 -190 -159 -3 -159 -3 -56 39 c-31 22 -89 56 -128 76 l-73 36 0 -34
c0 -53 -29 -81 -84 -80 -24 0 -57 9 -71 18 -26 17 -27 21 -23 89 l3 72 -34 3
c-56 6 -96 -6 -145 -44 -25 -19 -46 -38 -46 -42 0 -5 46 -27 103 -50 214 -90
274 -81 -575 -82 l-748 0 -2 212 c-2 158 -6 212 -15 216 -10 3 -13 -44 -13
-212 l0 -216 -410 0 -410 0 0 184 c0 271 27 497 90 754 229 934 903 1733 1790
2120 366 160 787 256 1143 261 l107 1 0 -310z m430 285 c703 -99 1312 -403
1810 -904 237 -239 405 -468 559 -762 233 -447 351 -927 351 -1431 l0 -198
-400 0 -400 0 0 210 c0 180 -2 210 -15 210 -13 0 -15 -30 -15 -210 l0 -210
-1145 0 c-908 0 -1147 3 -1150 13 -3 6 -4 188 -3 403 l3 391 180 -164 c190
-174 250 -223 271 -223 31 0 53 47 94 203 38 144 42 170 37 237 -3 41 -11 92
-17 112 -28 96 -124 187 -237 224 -46 15 -87 19 -196 19 l-137 0 0 728 0 727
210 0 c180 0 210 2 210 15 0 13 -30 15 -210 15 l-210 0 0 312 0 311 148 -6
c81 -3 199 -13 262 -22z m-2740 -3535 c0 -180 2 -210 15 -210 13 0 15 30 15
210 l0 210 533 -1 c304 0 523 -4 511 -9 -12 -4 -31 -21 -43 -35 -22 -28 -46
-103 -37 -112 3 -3 50 -25 104 -48 278 -118 497 -270 759 -529 88 -86 146
-136 152 -131 132 142 139 172 64 258 -125 142 -348 321 -532 426 -121 69
-288 145 -365 166 -47 13 -35 14 183 14 l233 1 84 -51 c156 -94 295 -203 465
-367 l86 -82 23 52 c31 71 36 127 17 165 -20 37 -107 118 -228 212 l-92 71
171 0 c131 0 172 -3 181 -14 8 -10 10 -312 9 -1127 l-3 -1114 -212 -3 c-283
-3 -283 -21 0 -24 l212 -3 3 -322 2 -323 -102 0 c-216 0 -543 54 -798 131
-1163 351 -2030 1359 -2199 2554 -10 77 -21 164 -24 193 l-4 52 408 0 409 0 0
-210z m4632 -17 c2 -170 6 -227 16 -231 9 -3 12 47 12 227 l0 231 401 0 400 0
-5 -42 c-3 -24 -11 -86 -17 -138 -144 -1239 -1057 -2298 -2275 -2640 -224 -63
-537 -110 -732 -110 l-102 0 2 323 3 322 213 3 c127 1 212 6 212 12 0 6 -85
11 -212 12 l-213 3 -3 1128 -2 1127 1150 0 1150 0 2 -227z"/>
<path d="M2730 6049 c-160 -44 -309 -139 -349 -222 -28 -59 -28 -148 0 -202
88 -168 430 -348 814 -429 105 -22 458 -74 615 -90 30 -4 147 -13 260 -21 190
-14 206 -14 217 2 14 18 17 13 -100 211 -264 447 -621 722 -982 753 -60 6
-175 12 -255 15 -125 3 -155 1 -220 -17z"/>
<path d="M2684 5110 c-120 -18 -198 -63 -244 -143 -39 -68 -41 -132 -5 -175
28 -33 94 -64 187 -88 163 -42 456 19 757 157 78 36 178 105 168 116 -7 6
-240 69 -352 94 -190 43 -382 58 -511 39z"/>
<path d="M4711 6513 c-32 -22 -82 -135 -120 -268 -35 -127 -35 -125 -18 -125
7 0 26 47 45 113 37 124 77 220 100 239 8 7 42 16 76 19 l61 5 -37 17 c-47 21
-77 21 -107 0z"/>
<path d="M2980 3969 c-19 -78 -7 -174 43 -349 71 -245 79 -335 41 -460 -21
-70 -3 -70 73 0 94 87 142 107 284 120 200 17 365 50 451 90 l27 13 -31 44
c-51 70 -225 233 -342 321 -192 142 -386 246 -497 267 l-37 7 -12 -53z"/>
</g>
</svg>
